<svg version="1.0" xmlns="http://www.w3.org/2000/svg" width="96" height="36" viewBox="0 0 1700.000000 512.000000" preserveAspectRatio="xMidYMid meet">
    <g transform="translate(0.000000,512.000000) scale(0.100000,-0.100000)" fill="#ffffffff" stroke="none">
        <path d="M1740 3999 c-1040 -10 -979 -6 -1140 -77 -52 -23 -184 -126 -220 -173 -30 -38 -92 -151 -109 -199 -41 -111 -41 -124 -41 -1215 1 -1143 4 -1218 54 -1349 83 -218 307 -386 546 -410 36 -3 551 -8 1145 -12 1186 -6 1191 -6 1326 52 108 46 154 77 234 158 81 83 125 166 157 290 20 80 21 99 19 1196 -1 951 -3 1128 -17 1203 -24 143 -75 238 -189 350 -69 68 -183 132 -285 161 -64 17 -324 37 -455 34 -49 -1 -511 -5 -1025 -9z m1181 -590 c101 -32 152 -78 201 -177 27 -54 32 -75 32 -140 0 -92 -22 -148 -84 -215 -64 -70 -116 -91 -230 -92 -109 0 -142 12 -227 89 -61 55 -92 122 -100 216 -5 58 -2 75 20 124 46 100 108 160 202 194 40 14 143 15 186 1z"/>
        <path d="M12560 3090 c-35 -35 -40 -46 -40 -85 0 -118 106 -182 205 -124 45 27 65 65 65 125 0 41 -5 51 -39 85 -36 36 -43 39 -95 39 -52 0 -59 -3 -96 -40z"/>
        <path d="M4400 3084 c-15 -39 -11 -1512 4 -1522 21 -12 658 -7 716 7 176 41 273 93 374 202 137 148 197 357 182 629 -8 132 -18 187 -54 285 -54 150 -173 286 -302 348 -135 64 -175 70 -562 75 l-348 4 -10 -28z m712 -223 c85 -29 143 -67 192 -124 49 -59 60 -77 80 -138 61 -186 47 -457 -31 -601 -15 -28 -55 -76 -89 -107 -50 -46 -78 -62 -141 -84 -73 -24 -91 -26 -263 -28 -102 0 -191 -1 -197 0 -19 1 -19 1097 0 1105 6 3 98 4 202 1 155 -3 201 -8 247 -24z"/>
        <path d="M8882 3093 c-4 -10 -7 -358 -7 -773 l0 -755 498 -3 498 -2 -3 102 -3 103 -361 3 c-273 2 -364 5 -371 15 -6 7 -8 102 -5 235 l4 222 338 0 c258 0 340 3 347 13 16 20 25 175 10 184 -7 4 -165 10 -352 13 l-340 5 -6 205 c-3 121 -2 210 4 217 7 10 98 13 371 15 l361 3 0 105 0 105 -488 3 c-457 2 -488 1 -495 -15z"/>
        <path d="M7145 2958 c-3 -13 -6 -77 -8 -143 l-2 -120 -75 -5 -75 -5 -3 -79 c-2 -48 1 -83 8 -90 6 -6 41 -13 78 -16 l67 -5 7 -335 c4 -184 12 -364 18 -400 20 -117 77 -184 179 -208 64 -15 203 -25 241 -17 l31 7 -3 91 -3 92 -70 5 c-84 6 -109 21 -130 77 -14 37 -16 84 -13 351 2 243 6 312 17 325 10 13 31 17 96 17 59 0 86 4 94 14 8 9 11 43 9 93 l-3 78 -92 3 c-65 2 -95 7 -103 17 -8 9 -15 66 -19 143 l-6 127 -117 3 c-115 3 -118 2 -123 -20z"/>
        <path d="M6187 2694 c-81 -22 -139 -55 -198 -115 -115 -115 -169 -262 -169 -458 0 -198 53 -335 173 -447 111 -104 210 -140 387 -138 94 1 126 6 175 24 177 67 271 178 331 390 28 96 25 281 -5 375 -30 96 -80 180 -145 246 -100 102 -206 140 -389 138 -62 -1 -134 -7 -160 -15z m286 -204 c124 -46 177 -161 177 -379 0 -159 -29 -244 -105 -306 -151 -124 -348 -88 -428 77 -38 80 -47 126 -47 236 0 158 33 256 110 326 23 21 56 44 74 52 47 20 156 17 219 -6z"/>
        <path d="M8025 2695 c-94 -30 -175 -95 -221 -178 -26 -47 -29 -61 -29 -142 1 -80 4 -96 30 -144 54 -98 153 -160 305 -191 209 -43 276 -71 309 -131 23 -40 23 -42 6 -85 -21 -55 -63 -87 -133 -102 -74 -16 -109 -15 -169 7 -79 29 -116 62 -143 129 -9 22 -13 23 -127 20 l-118 -3 3 -25 c4 -48 71 -168 113 -204 46 -39 122 -78 187 -95 66 -18 310 -16 366 3 85 29 143 64 188 115 68 75 92 132 92 216 0 86 -28 149 -88 202 -63 54 -100 69 -321 128 -124 33 -196 57 -221 75 -69 50 -54 163 28 205 49 26 168 32 221 11 47 -18 97 -64 118 -110 14 -29 15 -30 109 -33 69 -3 101 0 114 10 18 13 18 15 -2 71 -48 134 -113 197 -247 241 -67 22 -94 25 -204 24 -71 -1 -143 -6 -166 -14z"/>
        <path d="M10515 2694 c-52 -18 -134 -81 -160 -122 -32 -51 -44 -41 -47 41 l-3 72 -115 0 -115 0 -3 -557 c-3 -652 -19 -584 138 -572 l99 7 6 29 c4 16 4 154 1 306 -7 295 1 399 34 475 37 82 99 119 216 125 125 7 181 -25 230 -133 5 -11 11 -198 14 -415 l5 -395 119 -3 c89 -2 122 1 128 10 12 19 -1 792 -14 858 -7 30 -28 86 -47 124 -43 82 -100 129 -186 151 -70 19 -245 18 -300 -1z"/>
        <path d="M11529 2684 c-211 -80 -333 -340 -301 -641 7 -60 21 -133 33 -163 11 -30 23 -64 26 -75 16 -55 108 -157 176 -194 52 -29 162 -51 250 -51 114 0 209 41 286 125 39 42 41 43 52 24 15 -29 1 -206 -19 -239 -55 -88 -121 -120 -253 -120 -127 0 -169 14 -239 76 l-61 54 -103 0 c-119 0 -126 -5 -99 -73 38 -99 106 -163 223 -210 184 -74 463 -62 615 27 90 53 165 170 184 287 13 77 15 1165 3 1173 -15 9 -189 19 -216 12 -25 -6 -26 -9 -26 -81 0 -89 -13 -97 -54 -34 -56 84 -167 129 -318 128 -74 0 -106 -5 -159 -25z m398 -235 c100 -78 141 -193 129 -365 -9 -126 -27 -175 -92 -240 -69 -69 -109 -86 -204 -88 -67 -1 -81 2 -130 30 -113 64 -155 158 -155 349 0 133 13 185 69 263 56 79 113 103 238 99 86 -3 88 -4 145 -48z"/>
        <path d="M13443 2691 c-74 -25 -129 -64 -155 -111 -13 -22 -27 -38 -33 -37 -5 2 -11 34 -12 72 -1 44 -6 71 -15 77 -15 10 -198 5 -216 -6 -9 -5 -12 -151 -12 -561 0 -518 1 -555 18 -563 9 -5 65 -7 125 -4 l107 5 0 362 c0 389 2 404 54 481 33 49 81 79 148 93 117 25 219 -19 267 -114 l26 -50 -3 -375 c-1 -206 1 -380 5 -386 10 -13 231 -25 239 -13 2 5 5 190 4 412 0 437 -3 464 -55 562 -45 83 -88 119 -188 156 -69 25 -229 25 -304 0z"/>
        <path d="M14510 2694 c-78 -24 -133 -57 -191 -114 -116 -115 -177 -303 -165 -515 15 -272 150 -455 381 -516 68 -18 265 -16 331 4 76 22 144 60 188 104 67 66 147 205 126 218 -18 11 -224 7 -228 -5 -10 -30 -69 -82 -124 -110 -52 -26 -72 -30 -137 -30 -86 0 -135 18 -194 69 -54 48 -101 153 -95 214 3 32 3 32 73 39 39 4 214 7 390 5 176 -1 326 2 333 6 25 17 5 189 -37 314 -53 157 -184 284 -328 319 -75 17 -264 16 -323 -2z m287 -204 c57 -25 87 -52 118 -105 28 -48 43 -129 25 -140 -18 -11 -521 -8 -532 3 -25 25 52 180 111 221 72 52 189 60 278 21z"/>
        <path d="M12542 2688 c-9 -9 -12 -146 -12 -547 0 -295 3 -546 6 -559 6 -22 9 -23 123 -20 l116 3 3 558 c2 441 0 558 -10 561 -7 3 -58 7 -114 10 -71 4 -104 2 -112 -6z"/>
    </g>
</svg>
